<?xml version="1.0" standalone="no"?>
<!DOCTYPE svg PUBLIC "-//W3C//DTD SVG 20010904//EN"
 "http://www.w3.org/TR/2001/REC-SVG-20010904/DTD/svg10.dtd">
<svg version="1.0" xmlns="http://www.w3.org/2000/svg"
 width="152.000000pt" height="152.000000pt" viewBox="0 0 152.000000 152.000000"
 preserveAspectRatio="xMidYMid meet">
<metadata>
Created by potrace 1.14, written by Peter Selinger 2001-2017
</metadata>
<g transform="translate(0.000000,152.000000) scale(0.100000,-0.100000)"
fill="#000000" stroke="none">
<path d="M627 1485 c-16 -15 -37 -50 -48 -83 -11 -32 -33 -74 -49 -93 l-29
-34 -36 38 c-20 20 -39 37 -43 38 -4 0 -15 2 -24 4 -9 2 -25 -3 -34 -10 -23
-17 -21 -63 11 -174 14 -49 25 -95 25 -100 0 -6 -15 -26 -34 -46 -19 -19 -37
-50 -41 -68 -3 -17 -10 -43 -15 -57 -9 -26 -19 -89 -20 -127 0 -13 -6 -23 -12
-23 -20 0 -107 -79 -125 -113 -23 -46 -24 -97 -1 -134 11 -18 20 -33 21 -33
67 -15 79 -12 123 34 47 49 54 54 54 32 0 -7 6 -19 14 -25 16 -13 16 -69 1
-204 -6 -49 -4 -67 4 -67 7 0 9 -5 6 -10 -4 -6 -3 -10 2 -9 22 4 43 -2 57 -17
9 -8 16 -13 16 -10 0 2 28 -7 63 -21 76 -31 91 -34 192 -38 104 -5 149 -11
176 -25 11 -7 32 -9 46 -5 24 6 25 8 18 53 -4 26 -6 61 -5 77 5 55 4 110 -3
142 -6 31 -4 33 36 51 23 10 46 21 50 23 5 2 10 -21 12 -51 4 -74 7 -86 34
-114 17 -18 31 -23 54 -20 46 5 73 38 86 102 21 95 20 111 -5 145 -13 18 -28
42 -34 55 -5 13 -14 21 -19 18 -17 -11 20 77 48 112 16 21 46 83 66 140 21 56
42 106 49 110 15 10 90 102 104 128 17 33 22 76 10 91 -15 19 -42 16 -131 -12
-88 -28 -107 -30 -107 -12 0 13 22 57 59 117 38 63 63 121 57 136 -8 20 -50
17 -99 -7 -54 -28 -157 -99 -157 -110 0 -10 -29 -39 -40 -39 -5 0 -7 12 -5 28
11 57 12 138 3 164 -25 70 -97 32 -211 -110 -29 -36 -32 -35 -42 28 -4 25 -9
53 -11 63 -17 94 -61 121 -117 72z m69 -85 c4 -30 8 -59 9 -65 1 -5 5 -32 10
-60 8 -55 20 -75 42 -75 19 0 33 16 58 63 11 21 46 66 77 100 49 52 59 59 72
48 13 -11 15 -29 10 -100 -3 -47 -8 -89 -11 -94 -2 -4 -1 -16 2 -27 12 -36 50
-24 105 34 49 51 145 114 157 102 7 -6 -77 -178 -92 -188 -5 -4 -11 -15 -12
-25 -1 -10 -5 -30 -9 -45 -9 -41 18 -46 80 -15 86 43 146 67 172 67 13 0 24
-2 24 -5 0 -18 -47 -91 -89 -139 -27 -31 -64 -86 -83 -122 l-35 -65 -23 68
c-57 171 -177 282 -336 312 -87 17 -221 6 -298 -23 -37 -14 -70 -26 -72 -26
-5 0 -34 101 -34 117 0 11 5 10 24 -2 13 -9 37 -17 54 -20 41 -5 83 42 101
111 26 99 61 157 83 136 4 -4 10 -32 14 -62z m192 -320 c103 -47 181 -137 223
-255 48 -138 5 -254 -123 -329 -24 -14 -53 -27 -65 -29 -42 -6 -65 -46 -37
-65 14 -10 12 -92 -2 -92 -12 0 -24 31 -24 67 0 40 -44 41 -47 1 -1 -11 -6
-25 -11 -30 -15 -15 -52 1 -52 21 0 24 -25 45 -45 37 -8 -3 -15 -12 -15 -21 0
-16 -15 -18 -70 -9 -34 6 -36 8 -32 41 3 23 0 38 -9 44 -26 16 -38 9 -45 -26
-4 -23 -12 -35 -23 -35 -33 0 -43 -15 -30 -43 7 -15 18 -27 26 -27 15 0 18
-26 4 -34 -13 -8 -2 -44 16 -50 23 -9 53 12 53 38 0 29 15 35 59 24 31 -9 33
-11 26 -44 -7 -41 8 -66 33 -56 25 9 44 30 38 41 -4 5 -3 16 0 25 4 12 10 13
29 4 20 -9 23 -16 18 -47 -3 -20 -9 -40 -13 -44 -11 -13 -132 -11 -175 3 -22
7 -73 30 -113 52 -54 30 -71 44 -68 56 9 30 24 106 30 153 6 44 3 50 -39 104
-25 32 -46 68 -46 79 -12 205 0 291 45 331 12 11 36 38 52 59 46 63 144 95
275 91 73 -2 97 -7 157 -35z m-591 -397 c20 -53 -6 -122 -58 -148 -26 -14 -28
-13 -37 13 -13 38 6 93 44 126 34 30 42 32 51 9z m858 -203 c20 -22 17 -68 -7
-116 -19 -39 -34 -40 -47 -3 -12 35 -15 122 -4 132 12 13 40 7 58 -13z m-268
-272 c3 -26 1 -28 -34 -28 l-38 0 24 19 c15 11 21 23 16 31 -5 8 -2 11 10 8
11 -2 20 -14 22 -30z"/>
<path d="M583 922 c-12 -2 -37 -26 -60 -59 -31 -46 -38 -64 -38 -105 0 -61 26
-88 86 -88 31 0 42 5 56 27 9 14 19 33 20 42 6 31 5 150 -2 160 -10 17 -38 27
-62 23z m6 -145 c-7 -15 -18 -27 -26 -27 -17 0 -16 4 3 42 20 38 41 24 23 -15z"/>
<path d="M840 835 c-7 -8 -19 -15 -27 -15 -8 0 -12 -4 -9 -8 3 -5 -4 -36 -14
-70 -28 -90 -14 -132 44 -132 37 1 62 18 75 52 12 31 16 87 9 113 -4 11 -9 32
-12 48 -5 20 -12 27 -30 27 -13 0 -29 -7 -36 -15z m22 -116 c-12 -31 -26 -7
-17 29 6 23 8 24 16 10 5 -9 5 -26 1 -39z"/>
<path d="M651 636 c-15 -8 -19 -16 -13 -20 12 -7 9 -21 -16 -76 -9 -19 -17
-43 -19 -53 -4 -24 25 -33 44 -15 18 19 59 3 67 -24 5 -23 35 -23 52 0 14 18
16 75 5 127 -4 18 -19 38 -40 52 -39 26 -47 27 -80 9z"/>
<path d="M96 562 c-3 -5 1 -9 9 -9 8 0 12 4 9 9 -3 4 -7 8 -9 8 -2 0 -6 -4 -9
-8z"/>
</g>
</svg>
